<svg width="318" height="37" viewBox="0 0 318 37" fill="none" xmlns="http://www.w3.org/2000/svg">
<g clip-path="url(#clip0_6_841)" filter="url(#filter0_d_6_841)">
<g filter="url(#filter1_d_6_841)">
<path d="M75.54 0.564941C80.575 1.13002 84.6754 4.36834 84.44 9.80539C84.2045 15.2424 79.4159 17.5969 74.6381 18.1294L85.1391 28.0871L79.6875 28.2537L69.0199 17.9483H54.3497V28.0907H50.0029V1.10828C50.0029 1.06844 50.5064 0.564941 50.5463 0.564941H75.54ZM54.3497 14.6918H74.8156C75.3191 14.6918 77.8981 13.6486 78.4379 13.2429C80.4555 11.7324 80.5967 8.30576 79.1514 6.36784C78.724 5.79552 76.1124 4.18723 75.5364 4.18723H54.346V14.6918H54.3497Z" fill="white"/>
<path d="M75.5684 0.0649414L75.5957 0.0678711C78.1986 0.359995 80.5926 1.34665 82.3125 2.99756C84.0419 4.65757 85.0632 6.96581 84.9395 9.82666C84.8145 12.711 83.4725 14.7947 81.5381 16.2104C79.8931 17.4143 77.8295 18.1279 75.7344 18.479L85.4834 27.7241L86.3545 28.5503L85.1543 28.5864L79.7031 28.7534L79.4922 28.7603L79.3398 28.6138L68.8184 18.4487H54.8496V28.5903H49.5029V1.10791L49.5088 1.03076C49.5197 0.960508 49.5428 0.91133 49.5488 0.897949C49.5627 0.867109 49.5766 0.842946 49.585 0.82959C49.6023 0.802053 49.6205 0.778578 49.6318 0.76416C49.6562 0.733279 49.6852 0.700877 49.7119 0.671387C49.7671 0.610436 49.8373 0.537185 49.9062 0.468262C49.9752 0.399339 50.0484 0.329127 50.1094 0.273926C50.1389 0.247219 50.1713 0.218167 50.2021 0.193848C50.2166 0.182493 50.24 0.164299 50.2676 0.146973C50.2809 0.138581 50.3051 0.124735 50.3359 0.11084C50.3538 0.10281 50.4353 0.0650254 50.5459 0.0649414H75.5684ZM54.8457 14.1919H74.8154C74.8154 14.1918 74.8613 14.1884 74.9746 14.1606C75.0782 14.1353 75.2103 14.0973 75.3643 14.0474C75.6713 13.9477 76.0464 13.8086 76.4268 13.6558C76.8068 13.503 77.1857 13.3385 77.5 13.189C77.8276 13.0331 78.0479 12.9108 78.1377 12.8433L78.1387 12.8423C79.0037 12.1944 79.4963 11.1098 79.5947 9.92432C79.6932 8.73797 79.389 7.5234 78.751 6.66748C78.6942 6.59143 78.5084 6.42223 78.1904 6.18799C77.8907 5.96725 77.5189 5.72052 77.1396 5.48975C76.7598 5.25863 76.3807 5.04844 76.0674 4.89795C75.9105 4.82258 75.7772 4.76596 75.6729 4.729C75.5548 4.68719 75.5184 4.68701 75.5361 4.68701H54.8457V14.1919Z" stroke="white"/>
</g>
<g filter="url(#filter2_d_6_841)">
<path d="M173.885 2.74197C174.059 2.93033 172.708 5.82816 172.223 5.94407C171.875 6.02376 166.789 4.47343 165.637 4.28869C161.642 3.65479 153.84 3.35052 149.895 3.91922C147.407 4.27782 144.929 5.51664 144.969 8.36014C145.019 11.9643 150.355 12.3664 153.043 12.5366C158.335 12.8699 167.662 11.3485 172.06 14.1667C176.457 16.9848 176.291 23.9251 172.053 26.8048C167.083 30.1808 151.521 29.0325 145.632 27.5546C144.864 27.3626 140.604 26.2216 140.571 25.7435L142.219 22.6464C149.163 25.2327 157.567 26.2941 164.971 25.5153C168.463 25.1494 171.625 23.6425 170.969 19.6037C170.437 16.3255 165.148 15.9235 162.493 15.7641C155.553 15.3475 140.412 18.5025 140.912 7.61395C141.151 2.41959 146.074 0.659161 150.572 0.249843C158.284 -0.45288 166.576 0.318667 173.889 2.74197H173.885Z" fill="white"/>
<path d="M150.527 -0.248047C158.299 -0.956209 166.66 -0.179657 174.046 2.26758L173.983 2.65137L174.253 2.40332C174.338 2.49552 174.371 2.59528 174.385 2.65527C174.399 2.71829 174.401 2.77539 174.4 2.81543C174.399 2.8948 174.386 2.97229 174.372 3.03516C174.344 3.16515 174.294 3.31919 174.236 3.47754C174.119 3.79876 173.944 4.1994 173.75 4.5918C173.556 4.98374 173.337 5.38285 173.129 5.69727C173.026 5.8531 172.918 6.00025 172.81 6.11816C172.755 6.17724 172.693 6.23824 172.625 6.29004C172.561 6.33851 172.463 6.40093 172.339 6.43066L172.335 6.43164C172.215 6.45902 172.09 6.44242 172.043 6.43652C171.969 6.42729 171.882 6.41215 171.789 6.39355C171.602 6.35602 171.361 6.29858 171.087 6.22949C170.537 6.09097 169.828 5.89734 169.1 5.69727C167.618 5.29033 166.099 4.86902 165.559 4.78223V4.78125C161.597 4.15288 153.848 3.85456 149.967 4.41406C148.769 4.58661 147.621 4.96589 146.788 5.60449C145.976 6.22745 145.451 7.10409 145.469 8.35352C145.49 9.82929 146.566 10.7121 148.179 11.2627C149.782 11.8102 151.723 11.9525 153.074 12.0381C154.371 12.1197 155.924 12.0879 157.613 12.0361C159.294 11.9846 161.106 11.9131 162.889 11.9199C164.672 11.9268 166.445 12.0113 168.059 12.2764C169.668 12.5408 171.15 12.9903 172.329 13.7461C174.697 15.2635 175.818 17.8786 175.795 20.4668C175.772 23.0526 174.608 25.6732 172.334 27.2188C170.997 28.1267 169.002 28.7006 166.731 29.0479C164.447 29.3972 161.823 29.525 159.183 29.5C153.908 29.4499 148.503 28.7912 145.51 28.04V28.0391C145.118 27.9411 143.851 27.6061 142.675 27.2334C142.088 27.0475 141.51 26.8479 141.071 26.6611C140.855 26.5689 140.653 26.4715 140.497 26.3721C140.42 26.323 140.336 26.2617 140.264 26.1865C140.201 26.1213 140.086 25.9816 140.072 25.7773L140.062 25.6348L140.13 25.5088L141.778 22.4111L141.983 22.0254L142.394 22.1777C149.265 24.737 157.592 25.7883 164.919 25.0176C166.627 24.8386 168.176 24.3858 169.211 23.5479C170.206 22.7416 170.777 21.5392 170.476 19.6836C170.258 18.3444 169.061 17.5104 167.38 16.9922C165.724 16.482 163.795 16.3436 162.464 16.2637C160.758 16.1613 158.548 16.278 156.137 16.3457C153.747 16.4128 151.184 16.4295 148.845 16.1113C146.513 15.7941 144.338 15.1362 142.772 13.8027C141.18 12.4458 140.281 10.4428 140.412 7.59082C140.54 4.80702 141.938 2.92869 143.88 1.71387C145.797 0.514115 148.242 -0.0400959 150.527 -0.248047Z" stroke="white"/>
</g>
<g filter="url(#filter3_d_6_841)">
<path d="M263.356 23.3852V0.564862H267.34V28.0942C265.652 27.9493 263.671 28.4818 262.135 27.6849L240.709 9.26559L236.192 5.99466V28.0906H231.846L232.208 0.557617L236.551 0.745976L263.363 23.378L263.356 23.3852Z" fill="white"/>
<path d="M232.229 0.0576172L236.572 0.246094L236.743 0.253906L236.874 0.364258L262.855 22.2949V0.0644531H267.841V28.6387L267.298 28.5928C266.485 28.523 265.653 28.6173 264.689 28.6338C263.773 28.6495 262.788 28.5871 261.905 28.1289L261.854 28.1016L261.81 28.0645L240.405 9.66309L236.692 6.97363V28.5908H231.339L231.346 28.084L231.708 0.550781L231.715 0.0361328L232.229 0.0576172Z" stroke="white"/>
</g>
<g filter="url(#filter4_d_6_841)">
<path d="M286.538 24.8342H312.98C313.143 24.8342 313.147 27.6451 313.343 28.0943H279.293C279.387 27.0801 278.956 25.8304 279.663 25.0226L306.098 4.18722H279.836C279.047 4.18722 279.047 0.564941 279.836 0.564941H312.437C313.107 0.564941 313.292 3.5171 312.614 4.00249L286.538 24.8342Z" fill="white"/>
<path d="M312.437 0.0649414C312.723 0.0649414 312.927 0.227297 313.049 0.373535C313.169 0.518636 313.253 0.696874 313.313 0.866699C313.436 1.21099 313.506 1.64632 313.53 2.07373C313.555 2.5039 313.534 2.96178 313.457 3.35693C313.418 3.55431 313.363 3.75028 313.283 3.92432C313.208 4.08699 313.095 4.26169 312.925 4.39111L312.927 4.39307L287.965 24.3345H312.98C313.181 24.3345 313.311 24.4459 313.367 24.5083C313.423 24.5703 313.453 24.6327 313.468 24.6655C313.498 24.7346 313.514 24.8065 313.524 24.855C313.546 24.9602 313.563 25.0937 313.576 25.2319C313.604 25.5138 313.626 25.8905 313.648 26.2661C313.671 26.6476 313.695 27.0322 313.725 27.3491C313.739 27.5077 313.755 27.6423 313.771 27.7466C313.79 27.863 313.803 27.9011 313.801 27.895L314.105 28.5942H278.744L278.795 28.0483C278.815 27.8348 278.808 27.5982 278.792 27.3296C278.777 27.0734 278.752 26.7728 278.748 26.4878C278.74 25.9157 278.807 25.2418 279.286 24.6938L279.316 24.6587L279.353 24.6304L304.655 4.68701H279.836C279.521 4.68684 279.303 4.49981 279.177 4.33057C279.052 4.16354 278.969 3.95805 278.912 3.76123C278.796 3.36129 278.744 2.8575 278.744 2.37646C278.744 1.89543 278.796 1.3917 278.912 0.991699C278.969 0.794704 279.052 0.588557 279.177 0.421387C279.303 0.252139 279.521 0.0651179 279.836 0.0649414H312.437Z" stroke="white"/>
</g>
<g filter="url(#filter5_d_6_841)">
<path d="M7.98451 28.0943H4V14.3296C4.26443 14.2318 4.43467 14.6918 4.54334 14.6918H27.726C27.9035 14.6918 30.5296 13.9964 30.8773 13.8587C34.4743 12.4388 34.6011 7.00536 31.5004 5.11815C31.2649 4.97688 29.298 4.18722 29.1712 4.18722H4V0.564941H29.1749C29.461 0.564941 31.6272 1.11915 32.0944 1.26766C39.2122 3.55333 40.3351 13.2647 33.6665 16.6479C33.029 16.9739 30.0768 17.9519 29.5371 17.9519H8.52785C8.48801 17.9519 7.98451 18.4554 7.98451 18.4952V28.0943Z" fill="white"/>
<path d="M29.1748 0.0649414C29.2607 0.0649414 29.3675 0.0815994 29.4502 0.0961914C29.5467 0.11322 29.6637 0.137745 29.792 0.165527C30.0492 0.221232 30.3665 0.296383 30.6865 0.375488C31.3214 0.532387 31.9949 0.711662 32.2461 0.791504H32.2471C39.7434 3.19872 41.002 13.4846 33.8936 17.0923C33.5327 17.2768 32.597 17.6149 31.7188 17.8979C31.2713 18.0421 30.8228 18.1772 30.4492 18.2769C30.2628 18.3266 30.0901 18.3689 29.9434 18.3989C29.8072 18.4268 29.6592 18.4517 29.5371 18.4517H8.70996C8.67507 18.4847 8.63472 18.522 8.59473 18.562C8.55495 18.6018 8.5173 18.6415 8.48438 18.6763V28.5942H3.5V13.9819L3.82617 13.8608C4.05102 13.7777 4.26121 13.8205 4.41699 13.9038C4.55378 13.9771 4.65206 14.0815 4.70801 14.146C4.72139 14.1614 4.73331 14.1775 4.74512 14.1919H27.7002C27.7204 14.1883 27.7512 14.1823 27.793 14.1733C27.8761 14.1554 27.9895 14.1284 28.126 14.0952C28.3983 14.0289 28.7512 13.9383 29.1104 13.8433C29.8491 13.6478 30.5544 13.449 30.6934 13.394L30.9805 13.2671C32.3723 12.5827 33.1206 11.1599 33.2012 9.63721C33.2874 8.00738 32.6008 6.37542 31.2432 5.54736L31.2148 5.53271C31.1934 5.52211 31.1654 5.50797 31.1299 5.4917C31.0587 5.45907 30.9661 5.41863 30.8584 5.37256C30.6434 5.2806 30.3752 5.17045 30.1094 5.06396C29.8432 4.95737 29.5822 4.85592 29.3818 4.78174C29.2812 4.74448 29.1995 4.71586 29.1416 4.69678C29.1298 4.69289 29.1197 4.68962 29.1113 4.68701H3.5V0.0649414H29.1748Z" stroke="white"/>
</g>
<g filter="url(#filter6_d_6_841)">
<path d="M127.158 12.5186C126.676 13.0945 126.959 15.7786 126.795 15.7786H101.44V24.8343H128.969V28.0944H97.0928V12.5186H127.158Z" fill="white"/>
<path d="M128.228 12.0186L127.541 12.8398C127.538 12.8448 127.516 12.8794 127.489 12.9678C127.461 13.0613 127.437 13.1849 127.417 13.3359C127.377 13.6385 127.362 14.0043 127.357 14.3711C127.355 14.5528 127.354 14.731 127.354 14.8984C127.355 15.064 127.356 15.2222 127.354 15.3574C127.352 15.4882 127.347 15.6183 127.335 15.7207C127.329 15.767 127.319 15.8413 127.293 15.915C127.281 15.95 127.252 16.0212 127.193 16.0918C127.129 16.169 126.996 16.2782 126.796 16.2783H101.939V24.334H129.469V28.5947H96.5928V12.0186H128.228Z" stroke="white"/>
</g>
<g filter="url(#filter7_d_6_841)">
<path d="M217.714 12.5186V15.7786H191.996V24.8343H219.526L219.529 28.0944H187.649V12.5186H217.714Z" fill="white"/>
<path d="M218.215 12.0186V16.2783H192.496V24.334H220.025V24.834L220.029 28.0938V28.5947H187.149V12.0186H218.215Z" stroke="white"/>
</g>
<g filter="url(#filter8_d_6_841)">
<path d="M219.526 4.18722H187.65C187.766 3.32874 187.324 1.18797 187.991 0.724322L218.624 0.564941C220.164 0.840235 219.352 2.99912 219.53 4.18722H219.526Z" fill="white"/>
<path d="M218.667 0.0649414L218.712 0.0727539C219.236 0.166541 219.608 0.439078 219.828 0.838379C220.031 1.20625 220.082 1.63876 220.088 2.02588C220.094 2.41592 220.054 2.83811 220.028 3.19482C220.001 3.57353 219.989 3.87905 220.024 4.11377L220.11 4.68701H187.078L187.154 4.12061C187.176 3.95709 187.174 3.70558 187.159 3.37158C187.145 3.05718 187.121 2.67561 187.114 2.31689C187.108 1.95784 187.117 1.57762 187.182 1.24561C187.242 0.932198 187.373 0.545103 187.705 0.313965L187.833 0.225098L187.988 0.224121L218.622 0.0649414H218.667Z" stroke="white"/>
</g>
<g filter="url(#filter9_d_6_841)">
<path d="M128.607 0.564941H97.0928V4.18722H128.607V0.564941Z" fill="white"/>
<path d="M129.106 0.0649414V4.68701H96.5928V0.0649414H129.106Z" stroke="white"/>
</g>
</g>
<defs>
<filter id="filter0_d_6_841" x="0" y="0" width="317.343" height="37" filterUnits="userSpaceOnUse" color-interpolation-filters="sRGB">
<feFlood flood-opacity="0" result="BackgroundImageFix"/>
<feColorMatrix in="SourceAlpha" type="matrix" values="0 0 0 0 0 0 0 0 0 0 0 0 0 0 0 0 0 0 127 0" result="hardAlpha"/>
<feOffset dy="4"/>
<feGaussianBlur stdDeviation="2"/>
<feComposite in2="hardAlpha" operator="out"/>
<feColorMatrix type="matrix" values="0 0 0 0 0 0 0 0 0 0 0 0 0 0 0 0 0 0 0.25 0"/>
<feBlend mode="normal" in2="BackgroundImageFix" result="effect1_dropShadow_6_841"/>
<feBlend mode="normal" in="SourceGraphic" in2="effect1_dropShadow_6_841" result="shape"/>
</filter>
<filter id="filter1_d_6_841" x="45.0029" y="-0.435059" width="46.5664" height="37.7012" filterUnits="userSpaceOnUse" color-interpolation-filters="sRGB">
<feFlood flood-opacity="0" result="BackgroundImageFix"/>
<feColorMatrix in="SourceAlpha" type="matrix" values="0 0 0 0 0 0 0 0 0 0 0 0 0 0 0 0 0 0 127 0" result="hardAlpha"/>
<feOffset dy="4"/>
<feGaussianBlur stdDeviation="2"/>
<feComposite in2="hardAlpha" operator="out"/>
<feColorMatrix type="matrix" values="0 0 0 0 0 0 0 0 0 0 0 0 0 0 0 0 0 0 1 0"/>
<feBlend mode="normal" in2="BackgroundImageFix" result="effect1_dropShadow_6_841"/>
<feBlend mode="normal" in="SourceGraphic" in2="effect1_dropShadow_6_841" result="shape"/>
</filter>
<filter id="filter2_d_6_841" x="135.554" y="-0.999023" width="44.7412" height="39.002" filterUnits="userSpaceOnUse" color-interpolation-filters="sRGB">
<feFlood flood-opacity="0" result="BackgroundImageFix"/>
<feColorMatrix in="SourceAlpha" type="matrix" values="0 0 0 0 0 0 0 0 0 0 0 0 0 0 0 0 0 0 127 0" result="hardAlpha"/>
<feOffset dy="4"/>
<feGaussianBlur stdDeviation="2"/>
<feComposite in2="hardAlpha" operator="out"/>
<feColorMatrix type="matrix" values="0 0 0 0 0 0 0 0 0 0 0 0 0 0 0 0 0 0 1 0"/>
<feBlend mode="normal" in2="BackgroundImageFix" result="effect1_dropShadow_6_841"/>
<feBlend mode="normal" in="SourceGraphic" in2="effect1_dropShadow_6_841" result="shape"/>
</filter>
<filter id="filter3_d_6_841" x="226.832" y="-0.486328" width="45.5088" height="37.6699" filterUnits="userSpaceOnUse" color-interpolation-filters="sRGB">
<feFlood flood-opacity="0" result="BackgroundImageFix"/>
<feColorMatrix in="SourceAlpha" type="matrix" values="0 0 0 0 0 0 0 0 0 0 0 0 0 0 0 0 0 0 127 0" result="hardAlpha"/>
<feOffset dy="4"/>
<feGaussianBlur stdDeviation="2"/>
<feComposite in2="hardAlpha" operator="out"/>
<feColorMatrix type="matrix" values="0 0 0 0 0 0 0 0 0 0 0 0 0 0 0 0 0 0 1 0"/>
<feBlend mode="normal" in2="BackgroundImageFix" result="effect1_dropShadow_6_841"/>
<feBlend mode="normal" in="SourceGraphic" in2="effect1_dropShadow_6_841" result="shape"/>
</filter>
<filter id="filter4_d_6_841" x="274.196" y="-0.435059" width="44.6729" height="37.5293" filterUnits="userSpaceOnUse" color-interpolation-filters="sRGB">
<feFlood flood-opacity="0" result="BackgroundImageFix"/>
<feColorMatrix in="SourceAlpha" type="matrix" values="0 0 0 0 0 0 0 0 0 0 0 0 0 0 0 0 0 0 127 0" result="hardAlpha"/>
<feOffset dy="4"/>
<feGaussianBlur stdDeviation="2"/>
<feComposite in2="hardAlpha" operator="out"/>
<feColorMatrix type="matrix" values="0 0 0 0 0 0 0 0 0 0 0 0 0 0 0 0 0 0 1 0"/>
<feBlend mode="normal" in2="BackgroundImageFix" result="effect1_dropShadow_6_841"/>
<feBlend mode="normal" in="SourceGraphic" in2="effect1_dropShadow_6_841" result="shape"/>
</filter>
<filter id="filter5_d_6_841" x="-1" y="-0.435059" width="44.1035" height="37.5293" filterUnits="userSpaceOnUse" color-interpolation-filters="sRGB">
<feFlood flood-opacity="0" result="BackgroundImageFix"/>
<feColorMatrix in="SourceAlpha" type="matrix" values="0 0 0 0 0 0 0 0 0 0 0 0 0 0 0 0 0 0 127 0" result="hardAlpha"/>
<feOffset dy="4"/>
<feGaussianBlur stdDeviation="2"/>
<feComposite in2="hardAlpha" operator="out"/>
<feColorMatrix type="matrix" values="0 0 0 0 0 0 0 0 0 0 0 0 0 0 0 0 0 0 1 0"/>
<feBlend mode="normal" in2="BackgroundImageFix" result="effect1_dropShadow_6_841"/>
<feBlend mode="normal" in="SourceGraphic" in2="effect1_dropShadow_6_841" result="shape"/>
</filter>
<filter id="filter6_d_6_841" x="92.0928" y="11.5186" width="41.876" height="25.5757" filterUnits="userSpaceOnUse" color-interpolation-filters="sRGB">
<feFlood flood-opacity="0" result="BackgroundImageFix"/>
<feColorMatrix in="SourceAlpha" type="matrix" values="0 0 0 0 0 0 0 0 0 0 0 0 0 0 0 0 0 0 127 0" result="hardAlpha"/>
<feOffset dy="4"/>
<feGaussianBlur stdDeviation="2"/>
<feComposite in2="hardAlpha" operator="out"/>
<feColorMatrix type="matrix" values="0 0 0 0 0 0 0 0 0 0 0 0 0 0 0 0 0 0 1 0"/>
<feBlend mode="normal" in2="BackgroundImageFix" result="effect1_dropShadow_6_841"/>
<feBlend mode="normal" in="SourceGraphic" in2="effect1_dropShadow_6_841" result="shape"/>
</filter>
<filter id="filter7_d_6_841" x="182.649" y="11.5186" width="41.8809" height="25.5757" filterUnits="userSpaceOnUse" color-interpolation-filters="sRGB">
<feFlood flood-opacity="0" result="BackgroundImageFix"/>
<feColorMatrix in="SourceAlpha" type="matrix" values="0 0 0 0 0 0 0 0 0 0 0 0 0 0 0 0 0 0 127 0" result="hardAlpha"/>
<feOffset dy="4"/>
<feGaussianBlur stdDeviation="2"/>
<feComposite in2="hardAlpha" operator="out"/>
<feColorMatrix type="matrix" values="0 0 0 0 0 0 0 0 0 0 0 0 0 0 0 0 0 0 1 0"/>
<feBlend mode="normal" in2="BackgroundImageFix" result="effect1_dropShadow_6_841"/>
<feBlend mode="normal" in="SourceGraphic" in2="effect1_dropShadow_6_841" result="shape"/>
</filter>
<filter id="filter8_d_6_841" x="182.506" y="-0.435547" width="42.1846" height="13.6226" filterUnits="userSpaceOnUse" color-interpolation-filters="sRGB">
<feFlood flood-opacity="0" result="BackgroundImageFix"/>
<feColorMatrix in="SourceAlpha" type="matrix" values="0 0 0 0 0 0 0 0 0 0 0 0 0 0 0 0 0 0 127 0" result="hardAlpha"/>
<feOffset dy="4"/>
<feGaussianBlur stdDeviation="2"/>
<feComposite in2="hardAlpha" operator="out"/>
<feColorMatrix type="matrix" values="0 0 0 0 0 0 0 0 0 0 0 0 0 0 0 0 0 0 1 0"/>
<feBlend mode="normal" in2="BackgroundImageFix" result="effect1_dropShadow_6_841"/>
<feBlend mode="normal" in="SourceGraphic" in2="effect1_dropShadow_6_841" result="shape"/>
</filter>
<filter id="filter9_d_6_841" x="92.0928" y="-0.435059" width="41.5137" height="13.6221" filterUnits="userSpaceOnUse" color-interpolation-filters="sRGB">
<feFlood flood-opacity="0" result="BackgroundImageFix"/>
<feColorMatrix in="SourceAlpha" type="matrix" values="0 0 0 0 0 0 0 0 0 0 0 0 0 0 0 0 0 0 127 0" result="hardAlpha"/>
<feOffset dy="4"/>
<feGaussianBlur stdDeviation="2"/>
<feComposite in2="hardAlpha" operator="out"/>
<feColorMatrix type="matrix" values="0 0 0 0 0 0 0 0 0 0 0 0 0 0 0 0 0 0 1 0"/>
<feBlend mode="normal" in2="BackgroundImageFix" result="effect1_dropShadow_6_841"/>
<feBlend mode="normal" in="SourceGraphic" in2="effect1_dropShadow_6_841" result="shape"/>
</filter>
<clipPath id="clip0_6_841">
<rect width="309.343" height="29" fill="white" transform="translate(4)"/>
</clipPath>
</defs>
</svg>
