<?xml version="1.0" encoding="UTF-8"?>
<svg id="Layer_1" data-name="Layer 1" xmlns="http://www.w3.org/2000/svg" viewBox="0 0 363.18 346.88">
  <defs>
    <style>
      .cls-1 {
        fill: #231f20;
      }

      .cls-2 {
        fill: #ec1e24;
      }
    </style>
  </defs>
  <path class="cls-2" d="M336.5,311.34c7.23,4.54,14.8,8.49,21.94,13.21,6.94,4.59,5.47,14.73.66,19.33-4.08,3.89-11.15,3.81-15.82.9-11.72-7.29-23.78-14.02-35.68-21.03-9.6-5.66-19.17-11.36-28.72-17.1-3.32-2-134.94-94.58-135.42-98.43-.35-2.76-2.68-3.17-4.56-4.05-1.65-.77-2.18.84-2.96,1.76-19.82,22.97-44.73,32.4-74.64,27.08-17.8-3.16-32.63-12.28-44.1-26.24C7.98,195.56,2.05,182.67.21,168.1c-.35-2.78-.28-5.55.38-8.24,1.53-6.27,6.12-9.58,12.6-9.27,5.47.26,10.65,4.92,11.28,10.79.87,8.07,3.19,15.54,7.15,22.65,4.7,8.43,11.46,14.73,19.76,19.2,21.36,11.49,46.74,7.36,63.11-10.51,15.04-16.42,18.2-41.42,5.9-61.52-12.45-20.34-37.18-29.78-59.56-22.7-12.16,3.85-21.19,11.85-29.07,21.47-2.92,3.56-5.49,7.43-10.1,9.29-4.46,1.8-8.61,1.6-12.19-1.56-3.59-3.17-3.52-7.48-2.68-11.82.71-3.69,2.71-6.78,4.86-9.73,8.06-11.06,17.57-20.5,30.03-26.62,14.2-6.97,29.11-9.68,44.84-7.54,1.46.2,2.92.35,5.24.63-4.16-5.08-8.21-9.09-12.42-12.91-3.28-2.97-6.85-5.61-10.19-8.53-4.91-4.29-5.85-11.57-2.23-16.28,4.12-5.36,10.2-6.2,16.25-1.87,7.97,5.7,15.23,12.26,21.89,19.43,8.74,9.41,16.23,19.78,22.85,30.78,1.8,2.99,3.42,6.1,5.38,9.07-.04-4.93-.91-9.71-1.97-14.44-3.42-15.14-9.11-29.33-17.49-42.46-2.57-4.03-2.92-8.67-.4-12.98,2.23-3.82,5.61-6.19,10.26-5.73,4.19.41,7.38,2.75,9.57,6.23,6.11,9.71,11.12,19.95,14.98,30.8,3.25,9.14,5.73,18.43,7.34,27.98.08.48.3.93.75,2.27.62-2.58,1.1-4.36,1.48-6.17.39-1.83.71-3.68,1-5.53,1.36-8.67,2.82-17.33,3.5-26.09.5-6.39,4.3-10.4,10.06-10.8,6.14-.43,11.06,3.35,12.38,9.53.91,4.25.1,8.47-.4,12.67-2.31,19.32-6.24,38.34-11.65,57.02-4.99,17.24-11.33,34.02-19.04,50.25-2.28,4.79-4.48,9.63-7.29,14.16-.59.95-1.92,2.41-.59,3.42,1.47,1.13,2.9,3.38,5.06,2.49"/>
  <path class="cls-1" d="M70.97,122.3c-4.27,1.83-6.85,4.7-6.61,9.17.21,3.88,2.46,6.61,6.2,7.84,4.23,1.39,7.47-.32,10-3.79,3,6.68-1.34,16.33-6.75,20.39-8.03,6.03-19.25,5.67-26.31-1.06-7.56-7.2-8.73-18.5-2.56-26.85,5.3-7.18,15.85-11.28,26.02-5.7ZM66.76,143.08c-2.32.18-3.63,1.42-3.58,3.56.04,1.98,1.23,3.26,3.36,3.29,2.21.03,3.53-1.07,3.6-3.31.08-2.33-1.49-3.2-3.38-3.54Z"/>
</svg>