<?xml version="1.0" encoding="UTF-8"?>
<svg id="Layer_1" data-name="Layer 1" xmlns="http://www.w3.org/2000/svg" viewBox="0 0 576 576">
  <defs>
    <style>
      .cls-1 {
        fill: #fff;
      }

      .cls-2 {
        fill: #66aedf;
      }

      .cls-3 {
        font-family: BaskOldFace, 'Baskerville Old Face';
        font-size: 35.85px;
      }

      .cls-3, .cls-4 {
        fill: #ec1e24;
      }

      .cls-5 {
        fill: #231f20;
      }
    </style>
  </defs>
  <rect class="cls-1" width="576" height="576"/>
  <g>
    <path class="cls-4" d="M476.22,318.66c2.94,1.84,6.01,3.45,8.92,5.37,2.82,1.86,2.22,5.99.27,7.85-1.66,1.58-4.53,1.55-6.43.37-4.76-2.96-9.67-5.7-14.5-8.55-3.9-2.3-7.79-4.62-11.67-6.95-1.35-.81-54.84-38.44-55.04-40-.14-1.12-1.09-1.29-1.85-1.65-.67-.31-.88.34-1.2.71-8.06,9.34-18.18,13.17-30.33,11.01-7.24-1.29-13.26-4.99-17.92-10.66-3.74-4.55-6.16-9.79-6.9-15.71-.14-1.13-.11-2.25.15-3.35.62-2.55,2.49-3.89,5.12-3.77,2.22.11,4.33,2,4.58,4.38.35,3.28,1.3,6.32,2.9,9.2,1.91,3.43,4.66,5.99,8.03,7.8,8.68,4.67,19,2.99,25.65-4.27,6.11-6.67,7.4-16.83,2.4-25-5.06-8.27-15.11-12.1-24.21-9.22-4.94,1.56-8.61,4.82-11.81,8.72-1.19,1.45-2.23,3.02-4.1,3.78-1.81.73-3.5.65-4.95-.63-1.46-1.29-1.43-3.04-1.09-4.8.29-1.5,1.1-2.76,1.97-3.95,3.27-4.49,7.14-8.33,12.2-10.82,5.77-2.83,11.83-3.93,18.22-3.06.59.08,1.19.14,2.13.26-1.69-2.07-3.33-3.7-5.05-5.25-1.33-1.21-2.78-2.28-4.14-3.46-2-1.74-2.38-4.7-.91-6.62,1.68-2.18,4.15-2.52,6.61-.76,3.24,2.32,6.19,4.98,8.9,7.9,3.55,3.82,6.59,8.04,9.29,12.51.73,1.22,1.39,2.48,2.19,3.69-.02-2.01-.37-3.95-.8-5.87-1.39-6.15-3.7-11.92-7.11-17.26-1.05-1.64-1.18-3.52-.16-5.27.91-1.55,2.28-2.52,4.17-2.33,1.7.17,3,1.12,3.89,2.53,2.48,3.95,4.52,8.11,6.09,12.52,1.32,3.71,2.33,7.49,2.98,11.37.03.19.12.38.3.92.25-1.05.45-1.77.6-2.51.16-.74.29-1.5.41-2.25.55-3.52,1.15-7.04,1.42-10.6.2-2.6,1.75-4.23,4.09-4.39,2.49-.17,4.5,1.36,5.03,3.87.37,1.73.04,3.44-.16,5.15-.94,7.85-2.54,15.58-4.73,23.17-2.03,7.01-4.6,13.83-7.74,20.42-.93,1.95-1.82,3.92-2.96,5.76-.24.39-.78.98-.24,1.39.6.46,1.18,1.37,2.05,1.01"/>
    <g>
      <path class="cls-5" d="M114.97,231.79v14.85c0,2.85.16,4.97.48,6.36.32,1.38.92,2.52,1.78,3.42.76.78,1.63,1.36,2.62,1.74.99.38,2.3.61,3.92.69v.96h-26.81v-.96c1.62-.08,2.93-.31,3.92-.69.99-.38,1.87-.96,2.62-1.74.89-.9,1.5-2.03,1.8-3.4.31-1.37.46-3.5.46-6.38v-30.92c0-2.88-.15-5.01-.46-6.38-.31-1.37-.91-2.5-1.8-3.4-.76-.81-1.64-1.4-2.64-1.76-1.01-.36-2.31-.59-3.9-.67v-.96h20.22c3.38,0,5.61.01,6.67.04,4.33.2,7.73.78,10.19,1.76,2.77,1.12,4.92,2.79,6.44,5.01,1.52,2.22,2.29,4.8,2.29,7.74,0,4.36-1.65,7.86-4.95,10.49-1.01.78-2.12,1.43-3.34,1.93s-2.85.98-4.89,1.43c1.68.7,2.92,1.43,3.73,2.18.64.59,1.23,1.32,1.76,2.2.53.88,1.33,2.44,2.39,4.68,2.49,5.12,4.37,8.86,5.64,11.22,1.27,2.36,2.34,4.08,3.21,5.14.7.87,1.38,1.47,2.03,1.8.66.34,1.56.56,2.71.67v.96h-13.93c-.7-1.54-1.15-2.52-1.34-2.94l-2.94-6.67c-1.76-4-3.54-7.54-5.33-10.61-1.79-3.05-3.43-5.13-4.91-6.25-.76-.56-1.57-.96-2.43-1.2-.87-.24-1.93-.36-3.19-.36h-2.06ZM114.97,230.87h1.59c3.47,0,5.95-.2,7.45-.59,1.5-.39,2.9-1.2,4.22-2.43,2.94-2.8,4.41-6.27,4.41-10.41,0-2.21-.43-4.29-1.28-6.23-.85-1.94-2.03-3.55-3.54-4.8-1.17-.95-2.57-1.62-4.2-1.99-1.62-.38-3.93-.57-6.92-.57h-1.72v27.02Z"/>
      <path class="cls-5" d="M160.57,237c-.11,1.37-.17,2.36-.17,2.98,0,2.43.36,4.81,1.07,7.13.71,2.32,1.68,4.25,2.91,5.79,1.25,1.57,2.81,2.8,4.66,3.69,1.85.9,3.8,1.34,5.83,1.34,1.51,0,2.93-.25,4.29-.76s2.47-1.2,3.37-2.1c1-.98,1.87-2.54,2.59-4.7l.88.29c-.73,3.27-2.29,5.74-4.68,7.4-2.39,1.66-5.57,2.5-9.54,2.5-3.44,0-6.39-.55-8.85-1.64-2.46-1.09-4.55-2.77-6.25-5.03-2.38-3.16-3.57-7.05-3.57-11.66,0-6.29,2.25-11.23,6.75-14.81,3.27-2.6,7.01-3.9,11.2-3.9,2.24,0,4.31.4,6.21,1.2,1.9.8,3.51,1.95,4.82,3.46,2.04,2.35,3.06,5.29,3.06,8.81h-24.59ZM178.86,235.36c-.2-2.8-.71-4.95-1.54-6.46-.75-1.37-1.75-2.46-3.01-3.25-1.25-.8-2.59-1.2-4.01-1.2-2.39,0-4.49,1.04-6.29,3.1-1.8,2.07-2.86,4.67-3.2,7.8h18.04Z"/>
      <path class="cls-5" d="M188.68,224.16h16.28v.92c-1.23.25-2.07.53-2.52.84-.9.56-1.34,1.45-1.34,2.68,0,.75.14,1.63.42,2.64.28,1.01.79,2.47,1.54,4.4l6.76,17.22,6.84-17.93c1.01-2.65,1.51-4.62,1.51-5.91,0-1.4-.43-2.42-1.3-3.06-.45-.33-1.27-.63-2.48-.88v-.92h11.58v.92c-1.57.39-2.83,1.09-3.78,2.1-1.2,1.26-2.59,3.9-4.15,7.92l-9.69,24.72h-2.27l-10.53-25.98c-1.62-4-2.78-6.41-3.48-7.25-.39-.45-.83-.78-1.3-.98-.48-.21-1.17-.38-2.1-.52v-.92Z"/>
      <path class="cls-5" d="M226.44,225.04l12.08-1.51v24.16l.04,3.18c0,1.89.11,3.28.34,4.16.22.88.66,1.61,1.3,2.19.78.75,2.22,1.32,4.32,1.71v.88h-18.54v-.88c1.68-.22,2.88-.54,3.61-.94.73-.4,1.31-1.09,1.76-2.07.31-.64.52-1.61.65-2.9.13-1.29.19-3.17.19-5.61v-10.31c0-2.87-.07-4.88-.21-6.03-.14-1.15-.45-2.09-.92-2.82-.48-.78-1.05-1.34-1.72-1.69-.67-.35-1.64-.56-2.89-.65v-.88ZM235.19,208.47c-1.1,0-2-.35-2.72-1.05s-1.08-1.58-1.08-2.64.36-1.91,1.1-2.62c.73-.71,1.63-1.07,2.7-1.07s1.97.36,2.7,1.07c.73.71,1.1,1.59,1.1,2.62s-.36,1.94-1.08,2.64c-.72.7-1.62,1.05-2.72,1.05Z"/>
      <path class="cls-5" d="M255.68,237c-.11,1.37-.17,2.36-.17,2.98,0,2.43.36,4.81,1.07,7.13.71,2.32,1.68,4.25,2.91,5.79,1.25,1.57,2.81,2.8,4.66,3.69,1.85.9,3.8,1.34,5.83,1.34,1.51,0,2.93-.25,4.29-.76s2.47-1.2,3.37-2.1c1-.98,1.87-2.54,2.59-4.7l.88.29c-.73,3.27-2.29,5.74-4.68,7.4-2.39,1.66-5.57,2.5-9.54,2.5-3.44,0-6.39-.55-8.85-1.64-2.46-1.09-4.55-2.77-6.25-5.03-2.38-3.16-3.57-7.05-3.57-11.66,0-6.29,2.25-11.23,6.75-14.81,3.27-2.6,7.01-3.9,11.2-3.9,2.24,0,4.31.4,6.21,1.2,1.9.8,3.51,1.95,4.82,3.46,2.04,2.35,3.06,5.29,3.06,8.81h-24.59ZM273.97,235.36c-.2-2.8-.71-4.95-1.54-6.46-.75-1.37-1.75-2.46-3.01-3.25-1.25-.8-2.59-1.2-4.01-1.2-2.39,0-4.49,1.04-6.29,3.1-1.8,2.07-2.86,4.67-3.2,7.8h18.04Z"/>
      <path class="cls-5" d="M283.62,224.16h16.32v.92c-3.13.17-4.7,1.38-4.7,3.64,0,1.12.56,3.43,1.67,6.95l5.09,15.62,7.15-18.89c.56-1.45.84-2.62.84-3.52,0-2.4-1.45-3.67-4.36-3.81v-.92h16.07v.92c-1.37.2-2.34.49-2.89.88-.9.61-1.34,1.54-1.34,2.77,0,.98.26,2.36.79,4.15l5.52,18.43,6.51-16.59c.83-2.15,1.25-3.78,1.25-4.9,0-1.51-.53-2.67-1.58-3.48-.53-.45-1.48-.87-2.87-1.26v-.92h12.33v.92c-1.2,0-2.28.39-3.23,1.17-.61.48-1.2,1.19-1.74,2.16-.55.96-1.2,2.41-1.95,4.34l-.88,2.14-9.98,24.93h-1.47l-9.17-28.03-11.05,28.03h-1.43l-8.39-25.39-1.01-3.06c-.92-2.77-1.87-4.51-2.85-5.24-.56-.45-1.44-.8-2.64-1.05v-.92Z"/>
    </g>
    <g>
      <path class="cls-5" d="M145.42,313.54v21.98c0,4.22.24,7.36.71,9.41.48,2.05,1.36,3.74,2.64,5.06,1.12,1.16,2.41,2.02,3.88,2.58,1.47.56,3.4.9,5.81,1.02v1.43h-39.68v-1.43c2.4-.12,4.34-.47,5.81-1.02,1.47-.56,2.76-1.42,3.88-2.58,1.32-1.32,2.21-3,2.67-5.03.46-2.03.68-5.18.68-9.44v-45.77c0-4.26-.23-7.41-.68-9.44-.46-2.03-1.35-3.7-2.67-5.03-1.12-1.2-2.42-2.07-3.91-2.61-1.49-.54-3.42-.87-5.78-.99v-1.43h29.93c5.01,0,8.3.02,9.87.06,6.42.29,11.45,1.16,15.09,2.61,4.1,1.66,7.28,4.13,9.53,7.42,2.26,3.29,3.38,7.11,3.38,11.46,0,6.46-2.44,11.63-7.33,15.53-1.49,1.16-3.14,2.11-4.94,2.86s-4.21,1.45-7.23,2.11c2.48,1.04,4.33,2.11,5.53,3.23.95.87,1.82,1.96,2.61,3.26.79,1.3,1.97,3.61,3.54,6.92,3.68,7.58,6.47,13.11,8.35,16.61,1.88,3.5,3.47,6.03,4.75,7.61,1.03,1.28,2.04,2.17,3.01,2.67.97.5,2.31.83,4.01.99v1.43h-20.62c-1.04-2.28-1.7-3.73-1.99-4.35l-4.35-9.87c-2.61-5.92-5.24-11.16-7.89-15.71-2.65-4.51-5.07-7.6-7.27-9.25-1.12-.83-2.32-1.42-3.6-1.77-1.28-.35-2.86-.53-4.72-.53h-3.04ZM145.42,312.17h2.36c5.13,0,8.81-.29,11.02-.87,2.21-.58,4.3-1.78,6.24-3.6,4.35-4.14,6.52-9.27,6.52-15.4,0-3.27-.63-6.34-1.89-9.22-1.26-2.88-3.01-5.25-5.25-7.11-1.74-1.41-3.81-2.39-6.21-2.95-2.4-.56-5.82-.84-10.25-.84h-2.55v39.99Z"/>
      <path class="cls-5" d="M252.92,349l1.06.62c-1.49,4.35-4.91,6.52-10.25,6.52-2.94,0-5.39-.72-7.34-2.17-1.29-.95-2.61-2.61-3.98-4.97-2.78,2.48-4.87,4.12-6.28,4.91-2.7,1.49-5.83,2.24-9.39,2.24-4.56,0-8.18-1.1-10.85-3.29-2.67-2.19-4.01-5.15-4.01-8.88,0-3.44,1.1-6.31,3.29-8.63,1.24-1.28,2.67-2.31,4.29-3.07,1.61-.77,3.95-1.54,7.02-2.33,3.6-.91,6.26-1.68,7.98-2.3,1.72-.62,3.16-1.37,4.32-2.24,1.32-.95,2.24-2.07,2.73-3.35.5-1.28.75-3.06.75-5.34,0-4.84-.91-8.38-2.73-10.62-.83-1.03-1.89-1.86-3.2-2.48-1.3-.62-2.66-.93-4.07-.93-1.7,0-3.21.43-4.53,1.3-1.33.87-2.32,2.07-2.98,3.6l-1.55,3.6c-.83,1.95-2.32,2.92-4.47,2.92-1.41,0-2.59-.47-3.54-1.4-.95-.93-1.43-2.1-1.43-3.51,0-2.11,1.49-3.89,4.48-5.34,1.62-.75,3.62-1.36,6-1.83,2.38-.48,4.72-.71,7-.71,2.57,0,5.25.33,8.02.99,2.78.66,5.1,1.51,6.97,2.55,2.69,1.53,4.37,3.52,5.04,5.96.33,1.24.5,3.33.5,6.27v22.98c0,3.89.16,6.54.5,7.95.7,2.94,2.4,4.41,5.09,4.41,1.28,0,2.29-.23,3.01-.68.72-.46,1.58-1.37,2.58-2.73ZM232.36,324.53c-2.23,1.86-4.68,3.5-7.37,4.91-3.01,1.61-5.1,2.84-6.25,3.66-1.16.83-2.21,1.82-3.16,2.98-1.94,2.4-2.91,5.2-2.91,8.38,0,2.73.75,4.99,2.26,6.77,1.51,1.78,3.42,2.67,5.73,2.67,2.02,0,3.93-.63,5.73-1.89,1.8-1.26,3.15-2.95,4.06-5.06,1.28-2.77,1.92-6.79,1.92-12.05v-10.37Z"/>
      <path class="cls-5" d="M270.12,302.24h15.77v2.36h-15.77v36.14c0,4.35.74,7.45,2.23,9.31.78,1.04,1.82,1.84,3.09,2.42,1.28.58,2.66.87,4.15.87,1.86,0,3.4-.38,4.64-1.15,1.24-.77,2.6-2.16,4.09-4.19l.93.81c-1.37,2.48-3.28,4.33-5.74,5.53-2.46,1.2-5.54,1.8-9.22,1.8-4.89,0-8.45-.95-10.68-2.86-1.2-.99-1.99-2.18-2.36-3.57-.37-1.39-.56-3.88-.56-7.48v-37.63h-6.64v-.99c2.69-.87,5.18-2.55,7.46-5.03,1.37-1.53,2.48-3.05,3.31-4.57.83-1.51,1.63-3.47,2.38-5.87l.62-2.05h2.31v16.15Z"/>
      <path class="cls-5" d="M287.69,303.54l17.88-2.24v35.77l.06,4.7c0,2.8.16,4.86.5,6.16.33,1.3.97,2.38,1.92,3.25,1.16,1.11,3.29,1.96,6.4,2.54v1.3h-27.45v-1.3c2.48-.33,4.26-.79,5.34-1.39,1.08-.6,1.95-1.62,2.61-3.06.46-.95.78-2.38.96-4.29.19-1.92.28-4.69.28-8.31v-15.26c0-4.24-.1-7.22-.31-8.93-.21-1.71-.66-3.1-1.37-4.17-.7-1.15-1.55-1.99-2.55-2.5-.99-.51-2.42-.83-4.29-.96v-1.3ZM300.64,279.01c-1.62,0-2.97-.52-4.03-1.55-1.06-1.03-1.59-2.34-1.59-3.91s.54-2.83,1.62-3.88c1.08-1.06,2.41-1.58,4-1.58s2.91.53,4,1.58c1.08,1.06,1.62,2.35,1.62,3.88s-.53,2.88-1.59,3.91-2.4,1.55-4.03,1.55Z"/>
      <path class="cls-5" d="M335.5,301.31c.58,2.41.88,4.66.88,6.74v1c5.13-5.16,11.24-7.74,18.32-7.74,5.3,0,9.56,1.24,12.79,3.72,3.19,2.44,4.78,5.91,4.78,10.42v26.3c0,2.81.16,4.87.5,6.17.33,1.3.97,2.39,1.92,3.26,1.16,1.12,3.29,1.96,6.4,2.54v1.3h-27.45v-1.3c2.48-.33,4.26-.8,5.34-1.4,1.08-.6,1.95-1.62,2.61-3.07.46-.95.78-2.39.96-4.31.19-1.92.28-4.68.28-8.28v-13.15c0-4.51-.16-7.81-.46-9.92-.31-2.11-.9-3.8-1.77-5.09-.95-1.45-2.31-2.57-4.09-3.38-1.78-.81-3.74-1.21-5.89-1.21-2.31,0-4.47.45-6.47,1.36-2,.91-3.58,2.15-4.74,3.72-1.24,1.65-2.06,3.53-2.45,5.61-.39,2.09-.59,5.55-.59,10.39v12.16l.06,4.59c0,2.81.17,4.87.5,6.17.33,1.3.97,2.39,1.93,3.26,1.16,1.12,3.29,1.96,6.4,2.54v1.3h-27.45v-1.3c2.48-.33,4.26-.79,5.34-1.39,1.08-.6,1.94-1.62,2.61-3.06.45-.95.78-2.38.96-4.29s.28-4.69.28-8.31v-15.26c0-4.24-.1-7.22-.31-8.93-.21-1.71-.66-3.1-1.37-4.17-.7-1.15-1.55-1.99-2.55-2.5-.99-.51-2.42-.83-4.29-.96v-1.3l17.01-2.24Z"/>
      <path class="cls-5" d="M399.54,360.3l-1.12.31c-.7-1.16-1.41-1.97-2.11-2.42-.7-.46-1.57-.68-2.61-.68-1.74,0-3.16.66-4.25,1.99-1.1,1.32-1.65,3.04-1.65,5.15,0,3.35,1.68,6.11,5.03,8.26,3.35,2.15,7.64,3.23,12.86,3.23,5.55,0,10.03-1.19,13.45-3.57,3.42-2.38,5.12-5.48,5.12-9.28,0-3.06-1.14-5.41-3.41-7.05-2.28-1.63-5.53-2.45-9.75-2.45h-9.87c-4.06,0-7.33-.95-9.81-2.87-2.57-1.99-3.85-4.38-3.85-7.16,0-2.95,1.37-5.27,4.1-6.98,1.41-.83,3.97-1.72,7.7-2.68-3.6-1.65-6.4-3.83-8.38-6.54-1.99-2.71-2.98-5.69-2.98-8.96,0-4.17,1.55-7.89,4.66-11.16,1.82-1.94,3.98-3.45,6.46-4.52,2.48-1.07,5.03-1.61,7.64-1.61,3.98,0,8.04,1.41,12.18,4.22,1.95-1.53,3.7-2.62,5.26-3.26,1.56-.64,3.25-.96,5.07-.96,2.03,0,3.67.44,4.92,1.3,1.49,1.08,2.24,2.4,2.24,3.97,0,.95-.29,1.75-.88,2.39-.59.64-1.32.96-2.19.96-1.34,0-2.55-.7-3.64-2.11l-1.42-1.86c-.78-.99-1.9-1.49-3.34-1.49-1.53,0-3.14.77-4.83,2.3,3.38,4.1,5.07,8.32,5.07,12.67,0,5.42-2.41,9.71-7.22,12.85-2.41,1.57-5,2.63-7.78,3.17-.83.12-3.47.33-7.91.62-6.09.37-9.13,2.07-9.13,5.09,0,2.65,2.59,3.97,7.78,3.97h10.26c3.61,0,6.66.32,9.14.96,2.49.64,4.66,1.65,6.53,3.01,3.65,2.69,5.47,6.48,5.47,11.37,0,5.38-2.11,9.58-6.34,12.61-4.35,3.1-10.74,4.66-19.15,4.66-9.04,0-15.44-1.82-19.21-5.47-2.41-2.36-3.61-5.3-3.61-8.82,0-2.77.89-5.12,2.67-7.05,1.78-1.92,3.95-2.89,6.52-2.89,1.86,0,3.38.56,4.56,1.68s1.77,2.59,1.77,4.41v.68ZM396.87,319.04c0,4.46.94,8.1,2.82,10.91s4.28,4.21,7.21,4.21,5.28-1.39,6.93-4.18c1.65-2.79,2.48-6.66,2.48-11.62s-1.07-9.21-3.22-12.27c-1.57-2.27-3.59-3.41-6.07-3.41-2.97,0-5.37,1.49-7.18,4.46-.91,1.49-1.63,3.31-2.17,5.45s-.8,4.3-.8,6.45Z"/>
      <path class="cls-5" d="M440.65,355.02v-17.57h.99c1.16,4.31,2.6,7.74,4.34,10.31,3.18,4.68,6.9,7.02,11.15,7.02,2.6,0,4.85-.79,6.75-2.36,2.07-1.74,3.1-4.2,3.1-7.39,0-2.61-.74-4.89-2.23-6.83-.83-1.03-1.87-1.99-3.13-2.86-1.26-.87-3.38-2.09-6.35-3.66-5.2-2.77-8.67-5.09-10.41-6.96-2.48-2.65-3.72-5.71-3.72-9.19,0-3.73,1.24-6.93,3.73-9.63,2.86-3.06,6.64-4.6,11.36-4.6,2.11,0,4.08.37,5.9,1.12l2.11.93c.66.25,1.24.37,1.74.37.79,0,1.53-.62,2.24-1.86h1.24l.68,14.1h-1.3c-.45-1.99-.94-3.58-1.46-4.78-.52-1.2-1.25-2.36-2.2-3.48-1.28-1.57-2.77-2.8-4.46-3.69-1.69-.89-3.36-1.34-5.02-1.34-2.31,0-4.28.84-5.91,2.52-1.63,1.68-2.45,3.74-2.45,6.18,0,2.03.73,3.86,2.2,5.5s3.73,3.14,6.78,4.5l6.57,2.98c3.92,1.78,6.86,4,8.8,6.64,1.94,2.65,2.91,5.78,2.91,9.38,0,4.35-1.41,7.95-4.22,10.81-3.23,3.31-7.37,4.97-12.42,4.97-2.73,0-5.51-.54-8.32-1.61-1.82-.7-2.92-1.11-3.29-1.21-.37-.1-.85-.16-1.43-.16-1.45,0-2.55.62-3.29,1.86h-.99Z"/>
    </g>
    <text class="cls-3" transform="translate(118.82 349.41) rotate(-90)"><tspan x="0" y="0">AND</tspan></text>
    <path class="cls-5" d="M368.3,241.83c-1.73.74-2.78,1.91-2.68,3.73.09,1.58,1,2.69,2.52,3.18,1.72.56,3.04-.13,4.06-1.54,1.22,2.71-.54,6.64-2.74,8.29-3.26,2.45-7.82,2.3-10.69-.43-3.07-2.93-3.55-7.52-1.04-10.91,2.15-2.92,6.44-4.58,10.58-2.32ZM366.59,250.28c-.94.07-1.47.58-1.46,1.45.02.8.5,1.33,1.37,1.34.9.01,1.43-.44,1.46-1.34.03-.95-.61-1.3-1.38-1.44Z"/>
    <path class="cls-2" d="M279.31,364.66l2.23,4.51c.19.38.55.64.96.7l4.98.72c1.05.15,1.47,1.44.71,2.18l-3.6,3.51c-.3.29-.44.72-.37,1.13l.85,4.96c.18,1.04-.92,1.84-1.85,1.35l-4.45-2.34c-.37-.2-.82-.2-1.19,0l-4.45,2.34c-.94.49-2.03-.3-1.85-1.35l.85-4.96c.07-.41-.07-.84-.37-1.13l-3.6-3.51c-.76-.74-.34-2.03.71-2.18l4.98-.72c.42-.06.78-.32.96-.7l2.23-4.51c.47-.95,1.82-.95,2.29,0Z"/>
    <path class="cls-2" d="M302.29,364.66l2.23,4.51c.19.38.55.64.96.7l4.98.72c1.05.15,1.47,1.44.71,2.18l-3.6,3.51c-.3.29-.44.72-.37,1.13l.85,4.96c.18,1.04-.92,1.84-1.85,1.35l-4.45-2.34c-.37-.2-.82-.2-1.19,0l-4.45,2.34c-.94.49-2.03-.3-1.85-1.35l.85-4.96c.07-.41-.07-.84-.37-1.13l-3.6-3.51c-.76-.74-.34-2.03.71-2.18l4.98-.72c.42-.06.78-.32.96-.7l2.23-4.51c.47-.95,1.82-.95,2.29,0Z"/>
    <path class="cls-2" d="M325.28,364.66l2.23,4.51c.19.38.55.64.96.7l4.98.72c1.05.15,1.47,1.44.71,2.18l-3.6,3.51c-.3.29-.44.72-.37,1.13l.85,4.96c.18,1.04-.92,1.84-1.85,1.35l-4.45-2.34c-.37-.2-.82-.2-1.19,0l-4.45,2.34c-.94.49-2.03-.3-1.85-1.35l.85-4.96c.07-.41-.07-.84-.37-1.13l-3.6-3.51c-.76-.74-.34-2.03.71-2.18l4.98-.72c.42-.06.78-.32.96-.7l2.23-4.51c.47-.95,1.82-.95,2.29,0Z"/>
    <path class="cls-2" d="M348.27,364.66l2.23,4.51c.19.38.55.64.96.7l4.98.72c1.05.15,1.47,1.44.71,2.18l-3.6,3.51c-.3.29-.44.72-.37,1.13l.85,4.96c.18,1.04-.92,1.84-1.85,1.35l-4.45-2.34c-.37-.2-.82-.2-1.19,0l-4.45,2.34c-.94.49-2.03-.3-1.85-1.35l.85-4.96c.07-.41-.07-.84-.37-1.13l-3.6-3.51c-.76-.74-.34-2.03.71-2.18l4.98-.72c.42-.06.78-.32.96-.7l2.23-4.51c.47-.95,1.82-.95,2.29,0Z"/>
    <path class="cls-2" d="M371.25,364.66l2.23,4.51c.19.38.55.64.96.7l4.98.72c1.05.15,1.47,1.44.71,2.18l-3.6,3.51c-.3.29-.44.72-.37,1.13l.85,4.96c.18,1.04-.92,1.84-1.85,1.35l-4.45-2.34c-.37-.2-.82-.2-1.19,0l-4.45,2.34c-.94.49-2.03-.3-1.85-1.35l.85-4.96c.07-.41-.07-.84-.37-1.13l-3.6-3.51c-.76-.74-.34-2.03.71-2.18l4.98-.72c.42-.06.78-.32.96-.7l2.23-4.51c.47-.95,1.82-.95,2.29,0Z"/>
  </g>
</svg>