<svg width="142" height="142" viewBox="0 0 142 142" fill="none" xmlns="http://www.w3.org/2000/svg">
<g filter="url(#filter0_dd_6_3902)">
<path d="M71 12C40.6767 12 16 36.6767 16 67C16 97.3233 40.6767 122 71 122C101.323 122 126 97.3233 126 67C126 36.6767 101.323 12 71 12ZM71 117.111C43.3656 117.111 20.8889 94.6344 20.8889 67C20.8889 39.3656 43.3656 16.8889 71 16.8889C98.6344 16.8889 121.111 39.3656 121.111 67C121.111 94.6344 98.6344 117.111 71 117.111ZM98.39 48.1656C99.3433 49.1189 99.3433 50.6711 98.39 51.6244L64.1678 85.8467C63.6911 86.3111 63.0678 86.5556 62.4444 86.5556C61.8211 86.5556 61.1978 86.3111 60.7211 85.8344L43.61 68.7233C42.6567 67.77 42.6567 66.2178 43.61 65.2644C44.5633 64.3111 46.1156 64.3111 47.0689 65.2644L62.4444 80.6522L94.9433 48.1533C95.8967 47.2 97.4367 47.2 98.39 48.1656Z" fill="url(#paint0_linear_6_3902)"/>
<path d="M71 11.5C101.599 11.5 126.5 36.4005 126.5 67C126.5 97.5995 101.599 122.5 71 122.5C40.4005 122.5 15.5 97.5995 15.5 67C15.5 36.4005 40.4005 11.5 71 11.5ZM71 17.3887C43.6417 17.3887 21.3887 39.6417 21.3887 67C21.3887 94.3583 43.6417 116.611 71 116.611C98.3583 116.611 120.611 94.3583 120.611 67C120.611 39.6417 98.3583 17.3887 71 17.3887ZM94.5898 47.7998C95.7379 46.6517 97.5943 46.6508 98.7432 47.8115C99.8917 48.9601 99.8917 50.8289 98.7432 51.9775L64.5215 86.2002L64.5166 86.2051C63.9464 86.7605 63.1977 87.0557 62.4443 87.0557C61.6902 87.0556 60.9388 86.76 60.3672 86.1885L43.2568 69.0771C42.1082 67.9286 42.1082 66.0597 43.2568 64.9111C44.3695 63.7985 46.1576 63.7636 47.3125 64.8066L47.4229 64.9111L62.4443 79.9443L94.5898 47.7998Z" stroke="#2BBAEE"/>
</g>
<defs>
<filter id="filter0_dd_6_3902" x="0" y="0" width="142" height="142" filterUnits="userSpaceOnUse" color-interpolation-filters="sRGB">
<feFlood flood-opacity="0" result="BackgroundImageFix"/>
<feColorMatrix in="SourceAlpha" type="matrix" values="0 0 0 0 0 0 0 0 0 0 0 0 0 0 0 0 0 0 127 0" result="hardAlpha"/>
<feOffset dy="4"/>
<feGaussianBlur stdDeviation="7.5"/>
<feComposite in2="hardAlpha" operator="out"/>
<feColorMatrix type="matrix" values="0 0 0 0 0.354459 0 0 0 0 0.727391 0 0 0 0 0.9625 0 0 0 1 0"/>
<feBlend mode="normal" in2="BackgroundImageFix" result="effect1_dropShadow_6_3902"/>
<feColorMatrix in="SourceAlpha" type="matrix" values="0 0 0 0 0 0 0 0 0 0 0 0 0 0 0 0 0 0 127 0" result="hardAlpha"/>
<feOffset dy="4"/>
<feGaussianBlur stdDeviation="5"/>
<feComposite in2="hardAlpha" operator="out"/>
<feColorMatrix type="matrix" values="0 0 0 0 1 0 0 0 0 1 0 0 0 0 1 0 0 0 0.3 0"/>
<feBlend mode="normal" in2="effect1_dropShadow_6_3902" result="effect2_dropShadow_6_3902"/>
<feBlend mode="normal" in="SourceGraphic" in2="effect2_dropShadow_6_3902" result="shape"/>
</filter>
<linearGradient id="paint0_linear_6_3902" x1="71" y1="12" x2="71" y2="122" gradientUnits="userSpaceOnUse">
<stop stop-color="#007DD1"/>
<stop offset="0.538462" stop-color="white"/>
<stop offset="1" stop-color="#007DD1"/>
</linearGradient>
</defs>
</svg>
